<svg id="next" xmlns="http://www.w3.org/2000/svg" width="94.988" height="58.181" viewBox="0 0 94.988 58.181">
  <g id="next-2" data-name="next" transform="translate(94.988 99.527) rotate(180)" opacity="0.575">
    <g id="Grupo_333" data-name="Grupo 333" transform="translate(0 41.346)">
      <path id="Caminho_230" data-name="Caminho 230" d="M93.469,67.719l-34.3-25.257a6.61,6.61,0,0,0-7.353,0L48.7,44.756a3.381,3.381,0,0,0-1.517,2.706A3.436,3.436,0,0,0,48.7,50.2L68.711,64.968H5.132C2.265,64.968,0,66.62,0,68.731v3.243c0,2.111,2.265,3.93,5.132,3.93H68.938L48.7,90.752a3.138,3.138,0,0,0,0,5.375l3.114,2.286a6.611,6.611,0,0,0,7.353-.005l34.3-25.256a3.19,3.19,0,0,0,0-5.433Z" transform="translate(0 -41.346)" fill="#fff"/>
    </g>
  </g>
</svg>
