<svg xmlns="http://www.w3.org/2000/svg" width="18.326" height="14.864" viewBox="0 0 18.326 14.864">
  <path id="Caminho_39" data-name="Caminho 39" d="M43.8,16.864a10.6,10.6,0,0,0,10.69-10.69V5.665a8.275,8.275,0,0,0,1.833-1.934,8.451,8.451,0,0,1-2.138.611,3.961,3.961,0,0,0,1.629-2.036,9.338,9.338,0,0,1-2.342.916A3.636,3.636,0,0,0,50.726,2a3.825,3.825,0,0,0-3.767,3.767,1.985,1.985,0,0,0,.1.814,10.526,10.526,0,0,1-7.737-3.971,3.9,3.9,0,0,0-.509,1.934A4.045,4.045,0,0,0,40.443,7.7a3.432,3.432,0,0,1-1.731-.509h0a3.721,3.721,0,0,0,3.054,3.665,3.139,3.139,0,0,1-1.018.1,1.733,1.733,0,0,1-.713-.1A3.857,3.857,0,0,0,43.6,13.5a7.687,7.687,0,0,1-4.683,1.629,2.819,2.819,0,0,1-.916-.1,9.61,9.61,0,0,0,5.8,1.833" transform="translate(-38 -2)" fill="#fff" fill-rule="evenodd"/>
</svg>
