<svg xmlns="http://www.w3.org/2000/svg" width="18.326" height="18.326" viewBox="0 0 18.326 18.326">
  <path id="Caminho_40" data-name="Caminho 40" d="M9.163,1.629a28.1,28.1,0,0,1,3.665.1,4.722,4.722,0,0,1,1.731.305,3.575,3.575,0,0,1,1.731,1.731A4.722,4.722,0,0,1,16.595,5.5c0,.916.1,1.222.1,3.665a28.1,28.1,0,0,1-.1,3.665,4.722,4.722,0,0,1-.305,1.731,3.575,3.575,0,0,1-1.731,1.731,4.722,4.722,0,0,1-1.731.305c-.916,0-1.222.1-3.665.1a28.1,28.1,0,0,1-3.665-.1,4.722,4.722,0,0,1-1.731-.305,3.575,3.575,0,0,1-1.731-1.731,4.722,4.722,0,0,1-.305-1.731c0-.916-.1-1.222-.1-3.665a28.1,28.1,0,0,1,.1-3.665,4.722,4.722,0,0,1,.305-1.731,3.656,3.656,0,0,1,.713-1.018,1.721,1.721,0,0,1,1.018-.713A4.722,4.722,0,0,1,5.5,1.731a28.1,28.1,0,0,1,3.665-.1M9.163,0A30.082,30.082,0,0,0,5.4.1a6.285,6.285,0,0,0-2.24.407A3.986,3.986,0,0,0,1.527,1.527,3.986,3.986,0,0,0,.509,3.156,4.639,4.639,0,0,0,.1,5.4,30.082,30.082,0,0,0,0,9.163,30.082,30.082,0,0,0,.1,12.93a6.285,6.285,0,0,0,.407,2.24A3.985,3.985,0,0,0,1.527,16.8a3.986,3.986,0,0,0,1.629,1.018,6.285,6.285,0,0,0,2.24.407,30.081,30.081,0,0,0,3.767.1,30.081,30.081,0,0,0,3.767-.1,6.285,6.285,0,0,0,2.24-.407,4.271,4.271,0,0,0,2.647-2.647,6.285,6.285,0,0,0,.407-2.24c0-1.018.1-1.324.1-3.767a30.081,30.081,0,0,0-.1-3.767,6.285,6.285,0,0,0-.407-2.24A3.986,3.986,0,0,0,16.8,1.527,3.985,3.985,0,0,0,15.169.509,6.285,6.285,0,0,0,12.93.1,30.082,30.082,0,0,0,9.163,0m0,4.48A4.608,4.608,0,0,0,4.48,9.163,4.683,4.683,0,1,0,9.163,4.48m0,7.737A3,3,0,0,1,6.109,9.163,3,3,0,0,1,9.163,6.109a3,3,0,0,1,3.054,3.054,3,3,0,0,1-3.054,3.054M14.05,3.156a1.12,1.12,0,1,0,1.12,1.12,1.13,1.13,0,0,0-1.12-1.12" fill="#fff" fill-rule="evenodd"/>
</svg>
